# xmcd
#
# Track frame offsets: 
#        150
#        22766
#        40308
#        53263
#        75299
#        92886
#        108683
#        129200
#        143159
#        159281
#        175530
#        195259
#
# Disc length: 2783 seconds
#
# Revision: 0
# Processed by: cddbd v1.5PL3 Copyright (c) Steve Scherf et al.
# Submitted via: ExactAudioCopy v0.95a4
#
DISCID=7d0add0c
DTITLE=Band of Blue - Band of Blue
DYEAR=2003
DGENRE=Blues
TTITLE0=Boneda
TTITLE1=Evil Eye
TTITLE2=Double Bob
TTITLE3=Stone Faced Woman
TTITLE4=Magic Day
TTITLE5=Kobe
TTITLE6=Head Above Water
TTITLE7=Home
TTITLE8=Dancin
TTITLE9=(Everybody Loses But) Scott
TTITLE10=Real Soon Waltz
TTITLE11=Light My Fire
EXTD=
EXTT0=
EXTT1=
EXTT2=
EXTT3=
EXTT4=
EXTT5=
EXTT6=
EXTT7=
EXTT8=
EXTT9=
EXTT10=
EXTT11=
PLAYORDER=
